<svg xmlns="http://www.w3.org/2000/svg" width="299.182" height="104.114" viewBox="0 0 299.182 104.114">
  <g id="Group_934" data-name="Group 934" transform="translate(-64.909 -410.943)">
    <g id="Group_710" data-name="Group 710">
      <text id="AR" transform="translate(131.896 492.69)" fill="#003d78" font-size="57" font-family="Poppins-Bold, Poppins" font-weight="700"><tspan x="0" y="0">AR</tspan></text>
      <text id="ENZY" transform="translate(215.091 493.69)" fill="#f9423a" font-size="58" font-family="Poppins-Bold, Poppins" font-weight="700"><tspan x="0" y="0">ENZY</tspan></text>
      <path id="Path_160" data-name="Path 160" d="M12.749,25.673c1.7-6.565,3.434-13.121,5.072-19.7.6-2.4,1.83-4.065,4.311-4.636A6.686,6.686,0,0,1,28.663,3.2a4.859,4.859,0,0,1,1.41,5.032,74.128,74.128,0,0,0-2.081,9.738c.915-1.279,1.836-2.554,2.745-3.837Q34.8,8.4,38.856,2.667a5.791,5.791,0,0,1,8.558-1.361,5.708,5.708,0,0,1,1.438,8.382Q42.164,19.12,35.478,28.554c-.3.42-.577.854-1.007,1.492a41.178,41.178,0,0,1,12.611,1.719,36.859,36.859,0,0,1,15.274,9.427c.859.871,1.135,1.355.029,2.325-2.272,1.993-4.406,4.15-6.521,6.313-.854.873-1.3,1.043-2.287.011a23.8,23.8,0,0,0-34.742-.108c-6.329,6.646-8.2,14.648-5.386,23.367,2.834,8.77,9.078,14.212,18.123,15.975,8.672,1.691,16.179-.877,22.278-7.31.707-.746,1.027-.751,1.729-.024,2.226,2.3,4.5,4.565,6.84,6.752.845.789.735,1.223-.019,1.962-10.261,10.066-22.436,13.609-36.235,9.672C12.427,96.208,3.971,86.837.727,72.877A32.5,32.5,0,0,1,0,65.456Q.027,41.943.014,18.429a12.069,12.069,0,0,1,.1-2.129,6.39,6.39,0,0,1,6.553-5.554A6.625,6.625,0,0,1,12.415,17.4c.093,2.726.018,5.457.018,8.186l.316.085" transform="translate(64.909 410.943)" fill="#003d78"/>
      <text id="let_us_Fix_Your_Need" data-name="let us Fix Your Need" transform="translate(132.573 511.057)" fill="#f9423a" font-size="12" font-family="Poppins-SemiBold, Poppins" font-weight="600" letter-spacing="0.41em"><tspan x="0" y="0">LET US FIX </tspan><tspan y="0" fill="#003d78">YOUR NEED</tspan></text>
      <g id="Group_12" data-name="Group 12" transform="translate(85.101 462.142)">
        <path id="Path_141" data-name="Path 141" d="M29.491,8.8a.6.6,0,0,0,.123.784,2.763,2.763,0,0,1,.725,2.272.74.74,0,0,0,.108.523,2.6,2.6,0,0,1,.283,2.5c-.139.323.227.475.22.712a3.752,3.752,0,0,1-.255,2.107c-.321.506.071,1.076-.138,1.666a12.95,12.95,0,0,1-1.4,3.383,23.958,23.958,0,0,1-1.445,2.3,16.209,16.209,0,0,1-2.241,2.29,10.672,10.672,0,0,1-2.735,1.868c-1,.324-1.861,1.094-2.916,1.116-.977.02-1.785.65-2.75.575-1.093-.085-2.228.36-3.255.022-.992-.326-2.1-.1-2.98-.643-.84-.521-1.918-.479-2.643-1.129-.676-.606-1.567-.833-2.221-1.432a16.025,16.025,0,0,1-2.295-2.236,11.094,11.094,0,0,1-1.913-2.8C1.444,21.71.7,20.866.685,19.84c-.009-.9-.578-1.631-.549-2.512.013-.4-.255-.822.135-1.2.094-.09.029-.291-.03-.453a2.646,2.646,0,0,1,.118-2.441c.2-.316-.138-.588-.061-.8a6.877,6.877,0,0,1,.774-2.2c.344-.447.253-1.245.626-1.791.2-.3.189-.8.74-.81.077,0,.179-.249.218-.4a2.956,2.956,0,0,1,1.557-2.01.758.758,0,0,0,.4-.372A2.671,2.671,0,0,1,6.422,3.207a.852.852,0,0,0,.4-.352A2.73,2.73,0,0,1,8.991,1.629c.15,0,.371-.043.435-.144A2.047,2.047,0,0,1,11.219.671C12.145.648,12.9.049,13.811.106c.35.022.718-.219,1.043.151.094.106.329,0,.516-.052A2.788,2.788,0,0,1,17.752.33c.11.069.291.159.373.115a2.064,2.064,0,0,1,2.028.3c.748.421,1.616.431,2.315.9.341.229.843.254.932.809.018.117.276.249.441.28.907.173,1.374.913,2.032,1.429A14.408,14.408,0,0,1,28.3,6.843,13.78,13.78,0,0,1,29.491,8.8" transform="translate(0 0.001)" fill="#003d78"/>
        <path id="Path_142" data-name="Path 142" d="M39.757,28.933a10.81,10.81,0,1,1-10.79,10.848,10.756,10.756,0,0,1,10.79-10.848" transform="translate(-24.272 -24.244)" fill="#fdfdfd"/>
        <path id="Path_143" data-name="Path 143" d="M33.188,43.283A10.126,10.126,0,1,1,43.339,53.4,10.15,10.15,0,0,1,33.188,43.283" transform="translate(-27.809 -27.78)" fill="#f9423a"/>
        <path id="Path_144" data-name="Path 144" d="M119.768,84.878a9.769,9.769,0,0,1-2.9,6.969c-.334.34-.507.411-.823-.047-.835-1.212-1.745-2.373-2.6-3.571a2.468,2.468,0,0,1,1.127-3.792c1.48-.54,3-.964,4.5-1.465.325-.109.418-.016.5.275a7.893,7.893,0,0,1,.2,1.63" transform="translate(-94.655 -69.489)" fill="#fdfdfd"/>
        <path id="Path_145" data-name="Path 145" d="M103.209,44.371a2.392,2.392,0,0,1-2.484-2.338c-.062-1.554,0-3.113-.028-4.669-.006-.42.206-.425.5-.376a9.73,9.73,0,0,1,7.4,5.449c.084.164.223.365-.069.443a34.2,34.2,0,0,1-5.316,1.492" transform="translate(-84.375 -30.975)" fill="#fdfdfd"/>
        <path id="Path_146" data-name="Path 146" d="M49.361,39.511c0,.7.017,1.395,0,2.091a2.513,2.513,0,0,1-3.212,2.417c-1.488-.426-2.943-.969-4.424-1.424-.375-.115-.4-.242-.235-.548A9.771,9.771,0,0,1,48.8,36.726c.487-.082.594.082.575.532-.032.75-.009,1.5-.009,2.252" transform="translate(-34.682 -30.757)" fill="#fdfdfd"/>
        <path id="Path_147" data-name="Path 147" d="M36.369,85.263c0-2.217,0-2.218,2.057-1.562.993.316,1.992.615,2.974.964a2.471,2.471,0,0,1,1.235,3.8c-.859,1.229-1.783,2.412-2.641,3.642-.3.429-.478.325-.776.021a9.651,9.651,0,0,1-2.848-6.865" transform="translate(-30.475 -69.817)" fill="#fdfdfd"/>
        <path id="Path_148" data-name="Path 148" d="M70.776,121.446a10.484,10.484,0,0,1-4.409-1.047c-.452-.218-.535-.385-.216-.809.885-1.175,1.713-2.392,2.591-3.572a2.472,2.472,0,0,1,3.952-.11c.984,1.232,1.85,2.556,2.794,3.821.292.392.038.5-.234.641a9.675,9.675,0,0,1-4.478,1.076" transform="translate(-55.269 -96.339)" fill="#fdfdfd"/>
        <path id="Path_149" data-name="Path 149" d="M87.093,88.717a1.657,1.657,0,1,1,.035-3.314,1.649,1.649,0,0,1,1.622,1.641,1.613,1.613,0,0,1-1.657,1.673" transform="translate(-71.59 -71.562)" fill="#fefefe"/>
        <path id="Path_150" data-name="Path 150" d="M93.638,39.464c0-.886-.006-1.771,0-2.656,0-.211-.116-.5.293-.525s.347.236.347.474q0,2.7,0,5.394c0,.234.052.536-.3.551-.419.018-.343-.325-.345-.581-.006-.885,0-1.771,0-2.656" transform="translate(-78.455 -30.401)" fill="#fdfdfd"/>
        <path id="Path_151" data-name="Path 151" d="M63.755,111.715c-.048.078-.122.217-.214.344q-1.56,2.146-3.128,4.286c-.123.168-.189.483-.539.241-.325-.225-.139-.395,0-.59q1.586-2.176,3.171-4.354c.128-.176.249-.367.508-.305.145.035.211.152.2.378" transform="translate(-50.02 -93.283)" fill="#fafafa"/>
        <path id="Path_152" data-name="Path 152" d="M110.6,116.327a2.337,2.337,0,0,1-.273.224c-.256.157-.327-.094-.424-.225-.7-.948-1.391-1.9-2.083-2.858-.393-.542-.78-1.089-1.178-1.628-.123-.166-.2-.334-.045-.5a.3.3,0,0,1,.487.043q1.74,2.362,3.459,4.739a.8.8,0,0,1,.057.208" transform="translate(-89.245 -93.203)" fill="#fafafa"/>
        <path id="Path_153" data-name="Path 153" d="M45.143,77.807c-.075.3-.247.337-.493.257q-2.7-.874-5.4-1.739c-.211-.068-.313-.2-.23-.423s.263-.231.458-.168c1.774.576,3.547,1.155,5.323,1.725.2.064.335.15.345.348" transform="translate(-32.669 -63.429)" fill="#f7f7f7"/>
        <path id="Path_154" data-name="Path 154" d="M120.875,76.307c.064.381-.2.346-.353.4q-2.551.842-5.109,1.662c-.225.072-.521.176-.621-.137s.208-.384.43-.455c1.7-.55,3.411-1.092,5.116-1.643.278-.09.545-.214.538.177" transform="translate(-96.172 -63.715)" fill="#f8f8f8"/>
        <path id="Path_155" data-name="Path 155" d="M132.984,87.978a9.1,9.1,0,0,1-2.373,6.144c-.333.382-.554.435-.8-.043a1.489,1.489,0,0,0-.284-.387c-.433-.411-.35-.733.024-1.182a6.813,6.813,0,0,0,1.575-4.847c-.029-.565.093-.792.635-.946,1.2-.341,1.19-.372,1.227.859,0,.134,0,.268,0,.4" transform="translate(-108.287 -72.492)" fill="#003d78"/>
        <path id="Path_156" data-name="Path 156" d="M103.388,40.956c0-1.074,0-1.076.955-.828a9.217,9.217,0,0,1,5.74,4.32c.251.412.185.6-.271.686a1.8,1.8,0,0,0-.456.149c-.583.294-.906.122-1.265-.444a6.392,6.392,0,0,0-3.86-2.824c-.717-.188-1.013-.466-.844-1.058" transform="translate(-86.594 -33.512)" fill="#003d78"/>
        <path id="Path_157" data-name="Path 157" d="M52,40.857c.219.758-.058,1.024-.7,1.186A6.9,6.9,0,0,0,47.2,45.074c-.117.175-.142.528-.48.428a10.976,10.976,0,0,1-1.5-.535c-.146-.068.05-.289.12-.413A9.023,9.023,0,0,1,51.56,40c.99-.208.225.691.444.853" transform="translate(-37.845 -33.494)" fill="#003d78"/>
        <path id="Path_158" data-name="Path 158" d="M39.357,86.007a.548.548,0,0,1,.129-.015c1.569.441,1.557.442,1.645,2.048a7.038,7.038,0,0,0,1.629,4.11c.136.169.466.3.277.588A10.042,10.042,0,0,1,42.067,94c-.1.113-.258-.128-.357-.235a8.961,8.961,0,0,1-2.353-7.762" transform="translate(-32.877 -72.055)" fill="#003d78"/>
        <path id="Path_159" data-name="Path 159" d="M73.95,139.662a8.961,8.961,0,0,1-3.889-.842c-.342-.149-.48-.3-.186-.625a1.6,1.6,0,0,0,.279-.392c.3-.648.679-.723,1.378-.462a6.614,6.614,0,0,0,4.723.012c.768-.291,1.087-.093,1.518.514s.386.847-.3,1.1a9.437,9.437,0,0,1-3.519.7" transform="translate(-58.416 -114.965)" fill="#003d78"/>
        <rect id="Rectangle_24" data-name="Rectangle 24" width="30.976" height="31.053" transform="translate(0 0)" fill="none"/>
      </g>
    </g>
  </g>
</svg>
